<?xml version="1.0" encoding="UTF-8"?>
<svg id="uuid-85a35cdf-79b0-47f7-ac1f-236ccf9cc675" data-name="Layer 2" xmlns="http://www.w3.org/2000/svg" width="44.8" height="111.4" viewBox="0 0 44.8 111.4">
  <defs>
    <style>
      .uuid-4883afcd-d6ab-46e6-8e5a-4b77cc6a04aa {
        fill: #475045;
      }
    </style>
  </defs>
  <g id="uuid-c2dd4933-c0f9-4e66-8598-8930174aa9af" data-name="Capa 1">
    <g>
      <path class="uuid-4883afcd-d6ab-46e6-8e5a-4b77cc6a04aa" d="M17.7,50.8c-3.7-10.1-7.1-21.1-8.4-27.4-1-5.2-3.5-13.1-5.1-17.9,3.6,6.8,8.1,18.3,12.3,30-.3-1.8-.5-3.4-.7-4.8C11.2,18,6.4,6.1,2.8,1.2c-.1-.2-.4-.3-.6-.1-.2,.1-.3,.4-.2,.6,0,.1,5,14.1,6.5,21.9,.9,4.7,3,11.7,5.4,19,1.3,2.7,2.6,5.5,3.9,8.2Z"/>
      <path class="uuid-4883afcd-d6ab-46e6-8e5a-4b77cc6a04aa" d="M41.5,102.5s0,0-.1,0c-.2-.1-.4-.3-.6-.6,.9,3,1.5,5.9,1.5,8.1-2.1-2.1-3.9-7.8-5.2-12-.6-1.8-1.1-3.4-1.5-4.4-.1-.2-.2-.4-.3-.6-.8-1.5-1.5-2.8-2-3.5-.5-.8-1.1-1.6-1.6-2.4,1,2.3,1.9,4.5,2.9,6.8,.4,.9,.9,2.5,1.5,4.4,1.6,5.1,3.7,11.5,6.3,13.1,0,0,.2,0,.3,0s.1,0,.2,0c.2,0,.3-.2,.3-.4,.2-1.6,0-3.5-.5-5.7-.3-.7-.6-1.6-.9-2.6,0,0-.2-.1-.3-.2Z"/>
      <path class="uuid-4883afcd-d6ab-46e6-8e5a-4b77cc6a04aa" d="M16.6,35.5c1.2,7.2,3.6,17,6,25.8,.6,1.2,1.1,2.4,1.6,3.6,.4,.9,.8,1.7,1.2,2.6-3.7-12.2-7.7-28.8-8.6-37.2h0c-.6-5.2-2.4-13.3-3.5-18.2,4.2,9.7,9.3,28.7,13.2,44.4-.9-4.4-1.7-9-2.4-13.1C20.2,28.5,15.8,13.6,12.2,7.8c-.1-.2-.4-.3-.6-.2-.2,0-.3,.3-.3,.6,0,.1,3.7,14.4,4.5,22.3,0,0,0,.2,0,.3,.2,1.4,.4,3,.7,4.8Z"/>
      <path class="uuid-4883afcd-d6ab-46e6-8e5a-4b77cc6a04aa" d="M31.2,75.1c.7,2.8,1.3,5,1.8,6.3,.3,.7,.6,1.5,.9,2.4,0,0,0,.1,.1,.2,.3,.4,.6,.9,.8,1.3-1.3-3.4-2.5-6.8-3.6-10.2Z"/>
      <path class="uuid-4883afcd-d6ab-46e6-8e5a-4b77cc6a04aa" d="M40.1,101.1c.2,.3,.4,.5,.6,.8,.2,.2,.4,.4,.6,.6,0,0,0,0,.1,0-.5-.4-.9-.8-1.4-1.4Z"/>
      <path class="uuid-4883afcd-d6ab-46e6-8e5a-4b77cc6a04aa" d="M26.5,56.5c1.5,7.3,3.2,14.2,4.5,18.1,0,.2,.1,.3,.2,.5,1.2,3.4,2.4,6.8,3.6,10.2,.7,1.2,1.5,2.4,2.2,3.6-.2-.8-.4-1.5-.6-2-1.6-4.2-3.1-8.4-4.5-12.6-2.8-8.3-7.6-31.6-8-41.4-.2-4.2-1.2-10.5-1.9-14.7,3.5,10,7.3,29.9,9.9,43.8,1.3,7,2.4,12.6,3,14.8,.4,1.5,1.1,3.5,1.9,5.8,.2,.7,.5,1.5,.8,2.3-1-3.6-2-7.3-2.9-10.9-1.8-6.9-4.4-21.6-6.1-34.2-2.4-11.1-5-21.6-7.4-26.1-.1-.2-.4-.3-.6-.2-.2,0-.4,.3-.3,.6,0,.1,2.4,12.3,2.7,19,.1,2.7,.6,6.4,1.2,10.5,.6,4.1,1.5,8.7,2.4,13.1Z"/>
      <path class="uuid-4883afcd-d6ab-46e6-8e5a-4b77cc6a04aa" d="M40.5,83.1c-.7-2.7-1.3-5.1-1.7-6.9-.6-2.6-1.6-9.3-2.9-17.8C33,38.9,28.5,9.4,24.9,.3c0-.2-.3-.4-.6-.3-.2,0-.4,.3-.4,.6,0,.1,2.3,14.9,2.8,23,.2,4.1,.9,9.8,1.8,16.1,1.7,12.6,4.3,27.2,6.1,34.2,.9,3.6,1.9,7.3,2.9,10.9,.4,1.5,.8,2.9,1.2,4.4,.3,.9,.6,2.4,.9,4.2,.6,1.1,1.2,2.2,1.7,3.3-.2-1.1-.4-2.1-.6-3-.4-2-.7-3.6-1-4.7-1.4-5-2.8-10.2-4.1-15.3-2.6-10.1-7.2-38.2-7.8-50.1-.3-4.5-1.1-11.1-1.8-16.1,3.1,12.6,6.5,35.2,9,51.1,1.3,8.5,2.3,15.2,2.9,17.9,.4,1.9,1,4.2,1.7,7,1.8,7,4.2,16.4,4.2,22.1-.3-.6-.6-1.4-.9-2.3,0,0-.1,0-.2,0s-.1,0-.2,0c-.3-.1-.5-.3-.8-.5,.3,1,.6,1.8,.9,2.6,.4,.9,.8,1.7,1.3,2.1,0,0,.2,.1,.4,.1s.1,0,.2,0c.2,0,.3-.2,.3-.4,.5-5.6-2.1-15.8-4.2-24Z"/>
      <path class="uuid-4883afcd-d6ab-46e6-8e5a-4b77cc6a04aa" d="M33.2,89.4c.5,.7,1.2,2,2,3.5,.1,.2,.2,.4,.3,.6,1.4,2.6,3,5.6,4.7,7.6,.5,.6,.9,1,1.4,1.4,0,0,.2,.1,.3,.2,.3,.2,.5,.4,.8,.5,0,0,.1,0,.2,0s.1,0,.2,0c0,0,0,0,.1,0,.1-.1,.2-.3,.2-.4-.1-1.7-.9-3.8-1.9-6.1-.5-1.1-1.1-2.1-1.7-3.3-.8-1.4-1.7-2.9-2.5-4.4-.7-1.2-1.5-2.4-2.2-3.6-.3-.5-.6-.9-.8-1.3,0,0,0-.1-.1-.2-1.3-2-2.3-3.7-3.1-5.1-1-1.7-2.9-5.9-5.4-11.3-.4-.8-.8-1.7-1.2-2.6-.5-1.2-1.1-2.3-1.6-3.6-1.5-3.3-3.2-6.9-4.9-10.5-1.3-2.7-2.6-5.5-3.9-8.2C9,32.7,4.2,23.7,.9,20c-.2-.2-.4-.2-.6,0-.2,.1-.3,.4-.2,.6,0,.1,5.4,11.6,7.4,18.1,3,9.8,13.2,31.5,18.2,39.3,1.9,3,3.9,6.1,6,9.1,.5,.8,1.1,1.6,1.6,2.4Zm-3.3-10.2c.8,1.4,1.9,3.2,3.3,5.3,3.4,5.4,8,12.6,9,17.2-2-1.7-4.4-6.2-6.1-9.3-.8-1.5-1.5-2.8-2-3.6-2.6-3.8-5.1-7.7-7.5-11.5-4.9-7.6-15.2-29.5-18.1-39.1-1.2-4-3.7-9.9-5.5-13.9,5.9,9.2,14.5,27.9,20.4,40.9,3,6.6,5.4,11.9,6.6,13.9Z"/>
    </g>
  </g>
</svg>