<?xml version="1.0" encoding="UTF-8"?>
<svg id="uuid-a2a0b695-7fb4-4cb0-ac1e-70090e844cea" data-name="Layer 2" xmlns="http://www.w3.org/2000/svg" width="53" height="53.1" viewBox="0 0 53 53.1">
  <defs>
    <style>
      .uuid-05a116e3-2b96-4ce4-b7b1-bfb0e285ab66 {
        fill: #475045;
      }
    </style>
  </defs>
  <g id="uuid-0f5cd044-bd5f-4aaa-8e83-234dcbc55599" data-name="Capa 1">
    <g>
      <path class="uuid-05a116e3-2b96-4ce4-b7b1-bfb0e285ab66" d="M26.5,0c-11.7,.4-11.7,17.3,0,17.7,11.7-.4,11.7-17.3,0-17.7Zm0,14.2c-2.9,0-5.3-2.4-5.3-5.3s2.4-5.3,5.3-5.3,5.3,2.4,5.3,5.3-2.4,5.3-5.3,5.3Z"/>
      <path class="uuid-05a116e3-2b96-4ce4-b7b1-bfb0e285ab66" d="M26.5,7.1c-1,0-1.8,.8-1.8,1.8s.8,1.8,1.8,1.8,1.8-.8,1.8-1.8-.8-1.8-1.8-1.8Z"/>
      <path class="uuid-05a116e3-2b96-4ce4-b7b1-bfb0e285ab66" d="M26.5,42.5c-1,0-1.8,.8-1.8,1.8s.8,1.8,1.8,1.8,1.8-.8,1.8-1.8-.8-1.8-1.8-1.8Z"/>
      <path class="uuid-05a116e3-2b96-4ce4-b7b1-bfb0e285ab66" d="M44.2,24.8c-1,0-1.8,.8-1.8,1.8s.8,1.8,1.8,1.8,1.8-.8,1.8-1.8-.8-1.8-1.8-1.8Z"/>
      <path class="uuid-05a116e3-2b96-4ce4-b7b1-bfb0e285ab66" d="M8.8,28.3c1,0,1.8-.8,1.8-1.8s-.8-1.8-1.8-1.8-1.8,.8-1.8,1.8,.8,1.8,1.8,1.8Z"/>
      <path class="uuid-05a116e3-2b96-4ce4-b7b1-bfb0e285ab66" d="M26.5,35.4c-11.7,.4-11.7,17.3,0,17.7,11.7-.4,11.7-17.3,0-17.7Zm0,14.2c-2.9,0-5.3-2.4-5.3-5.3s2.4-5.3,5.3-5.3,5.3,2.4,5.3,5.3-2.4,5.3-5.3,5.3Z"/>
      <path class="uuid-05a116e3-2b96-4ce4-b7b1-bfb0e285ab66" d="M44.2,17.7c-11.7,.4-11.7,17.3,0,17.7,11.7-.4,11.7-17.3,0-17.7Zm0,14.2c-2.9,0-5.3-2.4-5.3-5.3s2.4-5.3,5.3-5.3,5.3,2.4,5.3,5.3-2.4,5.3-5.3,5.3Z"/>
      <path class="uuid-05a116e3-2b96-4ce4-b7b1-bfb0e285ab66" d="M8.8,35.4c11.7-.4,11.7-17.3,0-17.7-11.7,.4-11.7,17.3,0,17.7Zm0-14.2c2.9,0,5.3,2.4,5.3,5.3s-2.4,5.3-5.3,5.3-5.3-2.4-5.3-5.3,2.4-5.3,5.3-5.3Z"/>
    </g>
  </g>
</svg>