<?xml version="1.0" encoding="UTF-8"?>
<svg id="uuid-b80a1a1b-4b12-42d4-8f17-7df02ed87f28" data-name="Layer 2" xmlns="http://www.w3.org/2000/svg" width="61" height="61" viewBox="0 0 61 61">
  <defs>
    <style>
      .uuid-f09c045e-1172-40fc-8aef-c675c3375a79 {
        fill: #475045;
        fill-rule: evenodd;
      }
    </style>
  </defs>
  <g id="uuid-3b2cd608-a505-41a4-b967-cf5ab74fe4ea" data-name="Capa 1">
    <g id="uuid-39345015-406e-42f8-8e8a-7038d10da51d" data-name="Icon">
      <path class="uuid-f09c045e-1172-40fc-8aef-c675c3375a79" d="M45.5,60.6c.6,.6,1.5,.6,2.1,0l13.1-13.1c.6-.6,.6-1.5,0-2.1l-13.1-13.1c-.6-.6-1.5-.6-2.1,0l-13.1,13.1c-.6,.6-.6,1.5,0,2.1l13.1,13.1ZM.4,45.5c-.6,.6-.6,1.5,0,2.1l13.1,13.1c.6,.6,1.5,.6,2.1,0l13.1-13.1c.6-.6,.6-1.5,0-2.1l-13.1-13.1c-.6-.6-1.5-.6-2.1,0L.4,45.5Zm44.5-8.4l8.4,8.4c.6,.6,.6,1.5,0,2.1l-5.8,5.8c-.6,.6-1.5,.6-2.1,0l-5.8-5.8c-.6-.6-.6-1.5,0-2.1l2.9-2.9c.6-.6,1.5-.6,2.1,0s.6,1.5,0,2.1l-1.9,1.9,3.8,3.8,3.8-3.8-7.4-7.4-7.4,7.4,11,11,11-11-11-11-1.6,1.6Zm-23,5.8l-7.4-7.4L3.5,46.5l11,11,11-11-1.6-1.6-8.4,8.4c-.6,.6-1.5,.6-2.1,0l-5.8-5.8c-.6-.6-.6-1.5,0-2.1l5.8-5.8c.6-.6,1.5-.6,2.1,0l2.9,2.9c.6,.6,.6,1.5,0,2.1s-1.5,.6-2.1,0l-1.9-1.9-3.8,3.8,3.8,3.8,7.4-7.4Zm9.6-25c-.6-.6-1.5-.6-2.1,0l-11.6,11.6c-.6,.6-.6,1.5,0,2.1l11.6,11.6c.6,.6,1.5,.6,2.1,0l11.6-11.6c.6-.6,.6-1.5,0-2.1l-11.6-11.6Zm-1,3.1l9.6,9.6-9.6,9.6-9.6-9.6,9.6-9.6Zm4.4,6.7c0-.8-.7-1.5-1.5-1.5h-5.8c-.8,0-1.5,.7-1.5,1.5v5.8c0,.8,.7,1.5,1.5,1.5h5.8c.8,0,1.5-.7,1.5-1.5v-5.8Zm-2.9,1.5v2.9h-2.9v-2.9h2.9ZM15.6,.4c-.6-.6-1.5-.6-2.1,0L.4,13.5c-.6,.6-.6,1.5,0,2.1l13.1,13.1c.6,.6,1.5,.6,2.1,0l13.1-13.1c.6-.6,.6-1.5,0-2.1L15.6,.4ZM60.6,15.6c.6-.6,.6-1.5,0-2.1L47.5,.4c-.6-.6-1.5-.6-2.1,0l-13.1,13.1c-.6,.6-.6,1.5,0,2.1l13.1,13.1c.6,.6,1.5,.6,2.1,0l13.1-13.1Zm-42.4,6.4l7.4-7.4L14.5,3.5,3.5,14.5l11,11,1.6-1.6L7.7,15.6c-.6-.6-.6-1.5,0-2.1l5.8-5.8c.6-.6,1.5-.6,2.1,0l5.8,5.8c.6,.6,.6,1.5,0,2.1l-2.9,2.9c-.6,.6-1.5,.6-2.1,0s-.6-1.5,0-2.1l1.9-1.9-3.8-3.8-3.8,3.8,7.4,7.4Zm20.9-3.8l7.4,7.4,11-11L46.5,3.5l-11,11,1.6,1.6,8.4-8.4c.6-.6,1.5-.6,2.1,0l5.8,5.8c.6,.6,.6,1.5,0,2.1l-5.8,5.8c-.6,.6-1.5,.6-2.1,0l-2.9-2.9c-.6-.6-.6-1.5,0-2.1s1.5-.6,2.1,0l1.9,1.9,3.8-3.8-3.8-3.8-7.4,7.4Z"/>
    </g>
  </g>
</svg>