<?xml version="1.0" encoding="UTF-8"?>
<svg id="uuid-e22bad66-8eb1-450e-a49c-53b68e0b1d16" data-name="Layer 2" xmlns="http://www.w3.org/2000/svg" width="63.1" height="58.7" viewBox="0 0 63.1 58.7">
  <defs>
    <style>
      .uuid-56a5b058-c413-4c04-b567-73fbe19e3871 {
        fill: #475045;
        stroke: #475045;
        stroke-miterlimit: 10;
        stroke-width: .5px;
      }
    </style>
  </defs>
  <g id="uuid-8d116909-173f-4692-929e-ceef54efa74e" data-name="Capa 1">
    <g>
      <path class="uuid-56a5b058-c413-4c04-b567-73fbe19e3871" d="M31.5,17.6c-.1-.4-.5-.7-1-.7s-.8,.3-1,.7c-.8,2.3-3.1,2.4-3.2,2.4-.6,0-1,.5-1,1v4.2c0,3.5,2.4,8.3,6.2,8.3s6.2-4.9,6.2-8.3v-4.2c0-.6-.5-1-1-1s-4.5,0-5.3-2.4Zm4.1,7.7c0,2.8-1.8,6.3-4.1,6.3s-4.1-3.4-4.1-6.3v-3.3c1-.2,2.3-.8,3.2-2,1.5,1.5,3.8,1.9,5.1,2.1v3.2h0Z"/>
      <path class="uuid-56a5b058-c413-4c04-b567-73fbe19e3871" d="M5.4,20s0,0,0,0c.5,0,1-.4,1-.9l1-11.5c.2-2.5,3.6-5.3,6.3-5.3h2.1c2.7,0,6.1,2.8,6.3,5.3l.2,2.1c0,.6,.5,1,1.1,1,.6,0,1-.5,1-1.1l-.2-2.1C23.9,3.6,19.3,.2,15.9,.3h-2.1c-3.8,0-8,3.6-8.3,7.1l-1,11.5c0,.6,.4,1.1,.9,1.1Z"/>
      <path class="uuid-56a5b058-c413-4c04-b567-73fbe19e3871" d="M39.6,10.6c.6,0,1.1-.4,1.1-1l.2-2.1c.2-2.5,3.6-5.3,6.3-5.3h2.1c2.7,0,6.1,2.8,6.3,5.3l1,11.5c0,.5,.5,.9,1,.9s0,0,0,0c.6,0,1-.6,.9-1.1l-1-11.5c-.3-3.8-4.9-7.2-8.3-7.2h-2.1c-3.8,0-8,3.6-8.3,7.2l-.2,2.1c0,.6,.4,1.1,1,1.1Z"/>
      <path class="uuid-56a5b058-c413-4c04-b567-73fbe19e3871" d="M21.1,31.4c0,.6,.4,1.1,1,1.1,.6,0,1.1-.4,1.1-1l1-13.5c.2-2.5,3.6-5.3,6.3-5.4h2.1c2.7,0,6.1,2.9,6.3,5.4l1,13.6c0,.5,.5,1,1,1s0,0,0,0c.6,0,1-.5,1-1.1l-1-13.5c-.3-3.8-4.9-7.2-8.3-7.2h-2.1c-3.8,0-8,3.7-8.3,7.2l-1,13.6Z"/>
      <path class="uuid-56a5b058-c413-4c04-b567-73fbe19e3871" d="M48.2,7.2c-.1-.4-.5-.7-1-.7s-.8,.3-1,.7c-.8,2.3-3.1,2.4-3.2,2.4-.6,0-1,.5-1,1v4.2c0,3.5,2.4,8.3,6.2,8.3s6.2-4.9,6.2-8.3v-4.2c0-.6-.5-1-1-1s-4.5,0-5.3-2.4Zm4.1,7.6c0,2.8-1.8,6.3-4.1,6.3s-4.1-3.4-4.1-6.3v-3.3c1-.2,2.3-.8,3.2-2,1.5,1.5,3.8,1.9,5.1,2.1v3.2h0Z"/>
      <path class="uuid-56a5b058-c413-4c04-b567-73fbe19e3871" d="M21.1,45.2v12.2c0,.5,.4,1,1,1.1s1.1-.4,1.1-1v-12.3c0-.6-.5-1.1-1.1-1s-1,.5-1,1.1Z"/>
      <path class="uuid-56a5b058-c413-4c04-b567-73fbe19e3871" d="M36.7,33.6c-.6,0-1.1,.5-1.1,1,0,.2,0,5.2-4.2,5.2s-4.2-5-4.2-5.2c0-.6-.5-1-1-1-3.8,0-6.8,1.1-8.9,3.1-1.6,1.6-2.6,3.9-2.6,6.2v12.5c0,.5,.4,1,1,1.1s1.1-.4,1.1-1v-12.5c0-1.8,.7-3.5,1.9-4.8,1.5-1.5,3.7-2.3,6.5-2.5,.3,2.4,1.6,5.6,5.2,6.1v5.3c0,.5,.4,1,1,1.1s1.1-.4,1.1-1v-5.3c3.5-.5,4.9-3.8,5.2-6.1,2.8,.2,5,1,6.5,2.5,1.3,1.3,1.9,3,1.9,4.8v12.5c0,.5,.4,1,1,1.1s1.1-.4,1.1-1v-12.5c0-2.4-.9-4.6-2.5-6.2-2-2-5.1-3.1-8.9-3.1Z"/>
      <path class="uuid-56a5b058-c413-4c04-b567-73fbe19e3871" d="M56.5,34.8c0,2.1,0,10,0,12.2s.4,1,1,1.1,1.1-.4,1.1-1v-12.3c0-.6-.5-1.1-1.1-1s-1,.5-1,1.1Z"/>
      <path class="uuid-56a5b058-c413-4c04-b567-73fbe19e3871" d="M62.5,26.4c-1.4-1.5-4.2-3.3-9.1-3.3-.6,0-1.1,.5-1.1,1,0,.2,0,5.2-4.2,5.2s-2.2-.4-2.9-1.2c-.4-.4-1-.5-1.5-.1-.4,.4-.5,1-.1,1.5,.9,1,2,1.7,3.4,1.9v3.2c0,.6,.5,1,1,1s1-.5,1-1v-3.2c3.6-.5,4.9-3.8,5.2-6.1,2.9,.2,5.1,1.1,6.6,2.6,.4,.4,1.1,.4,1.5,0,.4-.4,.4-1.1,0-1.5Z"/>
      <path class="uuid-56a5b058-c413-4c04-b567-73fbe19e3871" d="M4.4,34.8v12.2c0,.5,.4,1,1,1.1s1.1-.4,1.1-1v-12.3c0-.6-.5-1.1-1.1-1s-1,.5-1,1.1Z"/>
      <path class="uuid-56a5b058-c413-4c04-b567-73fbe19e3871" d="M14.8,7.2c-.1-.4-.5-.7-1-.7s-.8,.3-1,.7c-.8,2.3-3.1,2.4-3.2,2.4-.6,0-1,.5-1,1v4.2c0,3.5,2.4,8.3,6.2,8.3s6.2-4.9,6.2-8.3v-4.2c0-.6-.5-1-1-1s-4.5,0-5.3-2.4Zm4.1,7.6c0,2.8-1.8,6.3-4.1,6.3s-4.1-3.4-4.1-6.3v-3.3c1-.2,2.3-.8,3.2-2,1.5,1.5,3.8,1.9,5.1,2.1v3.2h0Z"/>
      <path class="uuid-56a5b058-c413-4c04-b567-73fbe19e3871" d="M15.8,34.6v-3.2c1.4-.2,2.6-.8,3.4-1.8,.4-.4,.3-1.1-.1-1.5-.4-.4-1.1-.3-1.5,.1-.7,.8-1.6,1.2-2.8,1.2-4.1,0-4.2-5-4.2-5.2,0-.6-.5-1-1.1-1-4.9,0-7.6,1.8-9.1,3.3-.4,.4-.4,1.1,0,1.5,.4,.4,1.1,.4,1.5,0,1.5-1.6,3.7-2.5,6.6-2.6,.3,2.4,1.6,5.6,5.1,6.1v3.2c0,.6,.5,1,1.1,1,.6,0,1-.5,1-1Z"/>
      <path class="uuid-56a5b058-c413-4c04-b567-73fbe19e3871" d="M39.8,45.2v12.2c0,.5,.4,1,1,1.1s1.1-.4,1.1-1v-12.3c0-.6-.5-1.1-1.1-1s-1,.5-1,1.1Z"/>
    </g>
  </g>
</svg>